# xmcd CD database file
#
# Track frame offsets:
#	150
#	4737
#	35070
#	66390
#	76642
#	91862
#	104795
#	109077
#	132100
#	146407
#	157852
#	172085
#	181022
#	198867
#	209907
#	218380
#
# Disc length: 3011 seconds
#
# Revision: 0
# Processed by: cddbd v1.5.1PL0 Copyright (c) Steve Scherf et al.
# Submitted via: CDex 1.51
#
DISCID=d70bc110
DTITLE=Heinz Sauer Quintet - Lost Ends
DYEAR=1993
DGENRE=Jazz
TTITLE0=01-Long Note
TTITLE1=02-Prologue From Outside
TTITLE2=03-Floating circles
TTITLE3=04-Don't Explain
TTITLE4=05-A Tail Of A B-Tune
TTITLE5=06-Vom Himmel hoch
TTITLE6=07-Tangent A
TTITLE7=08- Orbital Excursion
TTITLE8=09-Ocean Drive Talk
TTITLE9=10-Come Sunday
TTITLE10=11-Laughing At Dinosaurs
TTITLE11=12-"Ich bin kein Held, das ist nicht mein Job"
TTITLE12=13-Tangent B
TTITLE13=14-Ruby MY Dear
TTITLE14=15-Lost Ends
TTITLE15=16--Long Note
EXTD=YEAR: 1993
EXTT0=
EXTT1=
EXTT2=
EXTT3=
EXTT4=
EXTT5=
EXTT6=
EXTT7=
EXTT8=
EXTT9=
EXTT10=
EXTT11=
EXTT12=
EXTT13=
EXTT14=
EXTT15=
PLAYORDER=
